<?xml version="1.0" encoding="utf-8"?>
<!-- Generator: Adobe Illustrator 23.0.3, SVG Export Plug-In . SVG Version: 6.00 Build 0)  -->
<svg version="1.1" id="Layer_1" xmlns="http://www.w3.org/2000/svg" xmlns:xlink="http://www.w3.org/1999/xlink" x="0px" y="0px"
	 width="28px" height="30px" viewBox="0 0 28 30" style="enable-background:new 0 0 28 30;" xml:space="preserve">
<style type="text/css">
	.st0{fill-rule:evenodd;clip-rule:evenodd;fill:#182021;}
</style>
<path class="st0" d="M24.7,12.9H5l7.1-6.2c0.2-0.2,0.2-0.5,0-0.7s-0.5-0.2-0.7,0l-7.9,6.9c-0.1,0-0.1,0.1-0.2,0.1
	c-0.1,0.1-0.1,0.2-0.1,0.4c0,0.1,0,0.3,0.1,0.4c0,0,0.1,0.1,0.2,0.1l7.9,6.9c0.2,0.2,0.5,0.2,0.7,0s0.2-0.5,0-0.7L5,13.9h19.7
	c0.3,0,0.5-0.2,0.5-0.5S25,12.9,24.7,12.9z" transform="rotate(180 14 15)"/>
</svg>