<?xml version="1.0" encoding="utf-8"?>
<!-- Generator: Adobe Illustrator 23.0.3, SVG Export Plug-In . SVG Version: 6.00 Build 0)  -->
<svg version="1.1" id="Layer_1" xmlns="http://www.w3.org/2000/svg" xmlns:xlink="http://www.w3.org/1999/xlink" x="0px" y="0px"
	 width="28px" height="30px" viewBox="0 0 28 30" style="enable-background:new 0 0 28 30;" xml:space="preserve">
<style type="text/css">
	.st0{fill-rule:evenodd;clip-rule:evenodd;fill:#FFFFFF;}
	.st1{fill-rule:evenodd;clip-rule:evenodd;fill:#182021;}
</style>
<path id="copy_bg_2_" class="st0" d="M4.2,7.1h13.4c0.4,0,0.8,0.3,0.8,0.8v16.5c0,0.4-0.3,0.8-0.8,0.8H4.2c-0.4,0-0.8-0.3-0.8-0.8
	V7.8C3.4,7.4,3.8,7.1,4.2,7.1z"/>
<g id="copy_2_">
<g id="copy_4_">
<g>
<path class="st1" d="M22.8,1.1H10c-0.8,0-1.6,0.7-1.6,1.5v1.5h1V2.9c0-0.5,0.4-0.8,0.9-0.8h12.4c0.4,0,0.8,0.3,0.8,0.8v16.5
				c0,0.4-0.4,0.8-0.8,0.8h-1.2v1h1.4c0.9,0,1.6-0.7,1.6-1.5V2.6C24.4,1.8,23.7,1.1,22.8,1.1z M17.9,6.1H4c-0.9,0-1.6,0.7-1.6,1.5
				v16.9c0,0.9,0.7,1.6,1.6,1.6h13.9c0.9,0,1.5-0.7,1.5-1.5v-17C19.4,6.8,18.7,6.1,17.9,6.1z M18.4,24.3c0,0.4-0.3,0.8-0.8,0.8H4.2
				c-0.4,0-0.8-0.3-0.8-0.8V7.9c0-0.5,0.4-0.8,0.8-0.8h13.4c0.4,0,0.8,0.3,0.8,0.8C18.4,7.9,18.4,24.3,18.4,24.3z M11.4,13.1h-1v3
				h-3v1h3v3h1v-3h3v-1h-3V13.1z"/>
</g>
</g>
</g>
</svg>