<?xml version="1.0" encoding="utf-8"?>
<!-- Generator: Adobe Illustrator 23.0.3, SVG Export Plug-In . SVG Version: 6.00 Build 0)  -->
<svg version="1.1" id="Layer_1" xmlns="http://www.w3.org/2000/svg" xmlns:xlink="http://www.w3.org/1999/xlink" x="0px" y="0px"
	 width="28px" height="30px" viewBox="0 0 28 30" style="enable-background:new 0 0 28 30;" xml:space="preserve">
<style type="text/css">
	.st0{fill:#FFFFFF;}
	.st1{fill:#182021;}
</style>
<path id="bin_bg_2_" class="st0" d="M22.4,6V5.1h-1l0,0h-5v-3h-5v3h-5l0,0h-1v2.8l0,0v16.2c0,0.6,0.4,1,1,1h15c0.6,0,1-0.4,1-1V6
	C22.4,6.1,22.4,6,22.4,6z"/>
<g id="bin_1_">
<g>
<path class="st1" d="M10.4,12.1h-1v9h1V12.1z M24.9,4.1h-7.5V1.6c0-0.3-0.2-0.5-0.5-0.5h-6c-0.3,0-0.5,0.2-0.5,0.5v2.5H2.9
			c-0.3,0-0.5,0.2-0.5,0.5s0.2,0.5,0.5,0.5h1.8c-0.2,0.3-0.3,0.6-0.3,1v18c0,1.1,0.9,2,2,2h15c1.1,0,2-0.9,2-2v-18
			c0-0.4-0.1-0.7-0.3-1h1.8c0.3,0,0.5-0.2,0.5-0.5S25.2,4.1,24.9,4.1z M11.4,2.1h5v2h-5V2.1z M22.4,24.1c0,0.6-0.4,1-1,1h-15
			c-0.6,0-1-0.4-1-1v-19h17V24.1z M14.4,10.1h-1v11h1V10.1z M18.4,12.1h-1v9h1V12.1z"/>
</g>
</g>
</svg>