<?xml version="1.0" encoding="utf-8"?>
<!-- Generator: Adobe Illustrator 23.0.3, SVG Export Plug-In . SVG Version: 6.00 Build 0)  -->
<svg version="1.1" id="Layer_1" xmlns="http://www.w3.org/2000/svg" xmlns:xlink="http://www.w3.org/1999/xlink" x="0px" y="0px"
     width="28px" height="30px" viewBox="0 0 28 30" style="enable-background:new 0 0 28 30;" xml:space="preserve">
<style type="text/css">
    .st0{fill:#FFFFFF;}
    .st1{fill-rule:evenodd;clip-rule:evenodd;fill:#182021;}
</style>
<path id="edit_bg_1_" class="st0" d="M17.7,6L8.3,22.5l-4.9,1.4L2.2,19l9.5-16.5L17.7,6"/>
<g id="edit_3_">
    <g>
        <path class="st1" d="M16.1,10.9l0.3-0.5l2.7-4.8l-7.8-4.5L8.8,5.5l0,0L8.3,6.3l0,0L1.8,17.7l0,0l-0.5,0.9l0,0l-0.2,0.3l1.6,6.2
            L9,23.3L16.1,10.9L16.1,10.9z M3.4,23.9l-1.2-4.8l5.9,3.4L3.4,23.9z M8.7,21.7l-6.1-3.5L9.2,6.8l6.1,3.5L8.7,21.7z M9.7,6l2-3.5
            L17.8,6l-2,3.5L9.7,6z M12.1,24.1v1h14v-1H12.1z"/>
    </g>
</g>
</svg>