<?xml version="1.0" encoding="utf-8"?>
<!-- Generator: Adobe Illustrator 23.0.3, SVG Export Plug-In . SVG Version: 6.00 Build 0)  -->
<svg version="1.1" id="Layer_1" xmlns="http://www.w3.org/2000/svg" xmlns:xlink="http://www.w3.org/1999/xlink" x="0px" y="0px"
	 width="28px" height="30px" viewBox="0 0 28 30" style="enable-background:new 0 0 28 30;" xml:space="preserve">
<style type="text/css">
	.st0{fill-rule:evenodd;clip-rule:evenodd;fill:#FFFFFF;}
	.st1{fill-rule:evenodd;clip-rule:evenodd;fill:#182021;}
</style>
<path id="plus_bg_2_" class="st0" d="M24.3,11.9h-9v-9c0-0.6-0.4-1-1-1h-1c-0.6,0-1,0.4-1,1v9h-9c-0.6,0-1,0.4-1,1v1
	c0,0.6,0.4,1,1,1h9v9c0,0.6,0.4,1,1,1h1c0.6,0,1-0.4,1-1v-9h9c0.6,0,1-0.4,1-1v-1C25.3,12.3,24.8,11.9,24.3,11.9z"/>
<g id="plus_1_">
<g>
<path class="st1" d="M24.3,10.9h-8v-8c0-1.1-0.9-2-2-2h-1c-1.1,0-2,0.9-2,2v8h-8c-1.1,0-2,0.9-2,2v1c0,1.1,0.9,2,2,2h8v8
			c0,1.1,0.9,2,2,2h1c1.1,0,2-0.9,2-2v-8h8c1.1,0,2-0.9,2-2v-1C26.3,11.8,25.4,10.9,24.3,10.9z M25.3,13.9c0,0.6-0.4,1-1,1h-9v9
			c0,0.6-0.4,1-1,1h-1c-0.6,0-1-0.4-1-1v-9h-9c-0.6,0-1-0.4-1-1v-1c0-0.6,0.4-1,1-1h9v-9c0-0.6,0.4-1,1-1h1c0.6,0,1,0.4,1,1v9h9
			c0.6,0,1,0.4,1,1V13.9z"/>
</g>
</g>
</svg>