<?xml version="1.0" encoding="utf-8"?>
<!-- Generator: Adobe Illustrator 25.1.0, SVG Export Plug-In . SVG Version: 6.00 Build 0)  -->
<svg version="1.1" id="Layer_1" xmlns="http://www.w3.org/2000/svg" xmlns:xlink="http://www.w3.org/1999/xlink" x="0px" y="0px"
     viewBox="0 0 100 100" style="enable-background:new 0 0 100 100;" xml:space="preserve">
<style type="text/css">
    .st0{fill:#2A7C79;}
</style>
<path class="st0" id="spinner" d="M52.1,63c0.8,4.9,2.7,16.5-7.8,25.8c-1.4,1.2-2.8,2.2-4.2,3c-1.2,0.7-2.4,1.2-3.6,1.6c-2.3,0.7-4.7,0.9-7,0.6
    c-2.3-0.3-4.5-1.2-6.4-2.6c-1.6-1.1-2.9-2.4-3.7-3.7c-0.5-0.9-1.2-2.3-1.6-4.2c-0.4-2.1-0.3-4.1,0.2-6.2c0.6-2.5,1.9-5,3.9-7.3
    c2.3-2.7,5.4-5.3,9.4-7.6l0,0l0,0c5.5-3.1,8.6-5,10-6.2c0.5-0.4,0.7-0.6,0.8-0.8c1,1.5,2.3,2.6,3.8,3.3c6.9,17.5-2.6,27.5-2.6,27.5
    c9.6-9.6,5.9-23,5.9-23c-0.5-2.2-0.3-3.2-0.1-3.6c1.1,0.1,2.2,0,3.2-0.2c-0.3,0.5-0.5,1.3-0.4,2.2C51.9,61.8,52,62.4,52.1,63z
     M59,42.7c-0.8,0.5-1.5,0.8-2.1,0.8c0.8,0.8,1.4,1.7,1.8,2.7c0.4-0.1,1.4-0.4,3.1-1.9c0,0,9.8-10,22.9-6.4c0,0-13.5-3.3-25.1,11.5
    c0.1,1.7-0.2,3.4-1,5c0.2,0,0.6,0.1,1.1,0.3c1.8,0.7,4.9,2.4,10.3,5.6l0,0l0,0c4,2.3,7.8,3.7,11.3,4.3c3,0.5,5.8,0.4,8.3-0.3
    c2.1-0.6,3.9-1.6,5.5-3c1.5-1.3,2.4-2.6,2.9-3.5c0.7-1.3,1.2-3.1,1.3-5c0.2-2.4-0.2-4.7-1-6.9c-0.9-2.2-2.2-4.1-4-5.8
    c-0.9-0.9-2-1.6-3.2-2.3c-1.4-0.8-3-1.5-4.7-2.1c-13.2-4.5-22.3,3-26.2,6.2C59.7,42.1,59.3,42.5,59,42.7z M39.2,45.9
    c0.8,0.4,1.4,0.9,1.7,1.4c0.3-1.1,0.8-2,1.4-2.9c-0.3-0.3-1-1.1-3.2-1.7c0,0-13.5-3.5-17-16.6c0,0,3.9,13.3,22.5,16
    c1.4-1,3-1.5,4.8-1.7c-0.1-0.2-0.2-0.5-0.3-1.1c-0.3-1.8-0.4-5.5-0.3-11.8l0,0l0,0c-0.1-4.6-0.7-8.6-1.9-11.9
    c-1.1-2.9-2.5-5.2-4.4-7c-1.5-1.5-3.3-2.6-5.3-3.3c-1.9-0.6-3.5-0.8-4.5-0.7c-1.5,0-3.3,0.5-5,1.3c-2.1,1-4,2.5-5.4,4.3
    c-1.5,1.8-2.5,4-3,6.3c-0.3,1.2-0.4,2.6-0.4,4c0,1.6,0.2,3.4,0.5,5.1C22,39.4,33,43.6,37.7,45.3C38.3,45.6,38.8,45.8,39.2,45.9z
     M59.5,50.1c0,5.2-4.3,9.5-9.6,9.4c-5.2,0-9.5-4.3-9.4-9.6c0-5.2,4.3-9.5,9.6-9.4C55.3,40.5,59.5,44.8,59.5,50.1z M54.8,50
    c0-2.6-2.1-4.8-4.7-4.8c-2.6,0-4.8,2.1-4.8,4.7c0,2.6,2.1,4.8,4.7,4.8C52.6,54.8,54.7,52.7,54.8,50z">
    <animateTransform
  attributeType="xml"
  attributeName="transform"
  type="rotate"
  from="0 50 50"
  to="360 50 50"
  dur="1.2s"
  repeatCount="indefinite"
/>
    </path>
</svg>