<?xml version="1.0" encoding="utf-8"?>
<!-- Generator: Adobe Illustrator 23.0.3, SVG Export Plug-In . SVG Version: 6.00 Build 0)  -->
<svg version="1.1" id="Layer_1" xmlns="http://www.w3.org/2000/svg" xmlns:xlink="http://www.w3.org/1999/xlink" x="0px" y="0px"
	 width="28px" height="30px" viewBox="0 0 28 30" style="enable-background:new 0 0 28 30;" xml:space="preserve">
<style type="text/css">
	.st0{fill-rule:evenodd;clip-rule:evenodd;fill:#FFFFFF;}
	.st1{fill-rule:evenodd;clip-rule:evenodd;fill:#182021;}
</style>
<path id="check_box_bg_1_" class="st0" d="M5,4.1h17c1.1,0,2,0.9,2,2v17c0,1.1-0.9,2-2,2H5c-1.1,0-2-0.9-2-2v-17C3,5,3.9,4.1,5,4.1z
	"/>
<g id="check_box_4_">
<g>
<path class="st1" d="M22,3.1H5.1C3.4,3.1,2,4.5,2,6.2v16.9c0,1.6,1.4,3,3.1,3H22c1.7,0,3.1-1.4,3.1-3.1V6.2
			C25,4.5,23.7,3.1,22,3.1z M24,23.1c0,1.1-0.9,2-2,2H5c-1.1,0-2-0.9-2-2v-17c0-1.1,0.9-2,2-2h17c1.1,0,2,0.9,2,2V23.1z M19.2,9.2
			l-7.7,8.6l-3.6-3.6c-0.2-0.2-0.5-0.2-0.7,0s-0.2,0.5,0,0.7l4,4c0.1,0.1,0.2,0.1,0.4,0.1c0.1,0,0.3,0,0.4-0.1l8-9
			c0.2-0.2,0.2-0.5,0-0.7C19.7,9.1,19.4,9.1,19.2,9.2z"/>
</g>
</g>
</svg>
