<?xml version="1.0" encoding="utf-8"?>
<!-- Generator: Adobe Illustrator 23.0.3, SVG Export Plug-In . SVG Version: 6.00 Build 0)  -->
<svg version="1.1" id="Layer_1" xmlns="http://www.w3.org/2000/svg" xmlns:xlink="http://www.w3.org/1999/xlink" x="0px" y="0px"
	 width="142.1px" height="155.4px" viewBox="0 0 142.1 155.4" style="enable-background:new 0 0 142.1 155.4;" xml:space="preserve"
>
<style type="text/css">
	.st0{fill:#2A7C79;}
</style>
<g>
<path class="st0" d="M35.5,70.4c1,0.4,1.9,0.7,2.5,1c1.6,0.7,2.6,1.6,3,2.6c0.5-1.5,1.2-2.9,2.2-4.2c-0.4-0.6-1.7-1.8-5.4-2.9
		c0,0-23-5.9-28.9-28.2c0,0,6.7,22.6,38.3,27.3c0.4-0.3,0.8-0.5,1.2-0.8c2.7-1.5,5.6-2.2,8.4-2.1c-0.1-0.1-0.2-0.1-0.4-0.2
		c-0.5-0.2-0.6-0.3-0.8-0.5c-0.2-0.3-0.5-0.8-0.7-2.2c-0.5-3.1-0.7-9.3-0.6-20l0,0c-0.1-7.8-1.2-14.7-3.3-20.3
		c-1.8-4.9-4.3-8.9-7.5-12c-2.6-2.5-5.7-4.4-9-5.5c-3.2-1.1-5.9-1.3-7.6-1.2c-2.5,0.1-5.6,0.9-8.5,2.3c-3.6,1.7-6.8,4.3-9.3,7.3
		C6.6,13.9,4.9,17.5,4,21.6c-1,4.6-1,9.8,0.2,15.5C8.8,60.3,27.5,67.3,35.5,70.4z"/>
<path class="st0" d="M139.3,71.7c-1.4-3.7-3.7-7-6.8-9.8c-3.5-3.2-8-5.8-13.5-7.6c-22.5-7.6-37.9,5.1-44.5,10.5
		c-0.8,0.7-1.6,1.3-2.1,1.7c-1.5,1.1-2.9,1.5-4.1,1.3c-0.8-0.1-1.3-0.5-1.4-0.6c0,0,0,0,0,0l0,0c0-0.1-0.1-0.1-0.2-0.1
		c-0.1-0.1-0.2-0.1-0.3-0.2c1.5,1.2,2.8,2.7,3.8,4.5c0.3,0.5,0.5,0.9,0.7,1.4c0.7-0.1,2.4-0.6,5.2-3.3c0,0,16.6-16.9,38.9-10.9
		c0,0-22.9-5.5-42.8,19.5c0.2,2.9-0.3,5.7-1.5,8.3c0.2-0.1,0.3-0.2,0.5-0.2c0.3,0,1,0,2.3,0.5c3,1.1,8.4,4,17.6,9.5l0,0
		c6.8,3.8,13.3,6.3,19.2,7.3c5.1,0.9,9.9,0.7,14.1-0.5c1.9-0.5,3.7-1.3,5.4-2.3c1.4-0.8,2.7-1.7,3.9-2.8c2.5-2.2,4.1-4.5,4.9-6
		c1.2-2.2,2-5.3,2.3-8.5C141.3,79.4,140.7,75.3,139.3,71.7z"/>
<path class="st0" d="M64.7,65.5c-0.1,0-0.2-0.1-0.2-0.1C64.5,65.4,64.6,65.4,64.7,65.5z"/>
<path class="st0" d="M59.4,98.7c-0.2-1.6,0.1-2.8,0.6-3.7c-1.8,0.4-3.7,0.6-5.5,0.4c-0.3,0.7-0.7,2.4,0.2,6.1c0,0,6.4,22.8-10,39.2
		c0,0,16.3-17.1,4.5-46.8c-2.6-1.2-4.8-3.1-6.5-5.7c-0.2,0.3-0.6,0.8-1.4,1.4c-2.5,2-7.7,5.3-17,10.5l0,0l0,0
		c-6.7,4-12.1,8.4-15.9,13c-3.3,4-5.5,8.2-6.6,12.5c-0.9,3.5-1,7.1-0.3,10.6c0.7,3.3,1.8,5.7,2.7,7.2c1.3,2.1,3.6,4.4,6.2,6.2
		c3.3,2.3,7.1,3.8,10.9,4.4c3.9,0.6,7.9,0.3,11.9-1c2.1-0.7,4.1-1.6,6.2-2.7c2.4-1.4,4.8-3.1,7.1-5.1c17.8-15.7,14.6-35.4,13.2-43.8
		C59.7,100.3,59.5,99.3,59.4,98.7z"/>
</g>
<path class="st0" d="M70.3,71.3c-4.4-7.8-14.3-10.5-22-6.1c-7.8,4.4-10.5,14.3-6.1,22c4.4,7.8,14.3,10.5,22,6.1
	C72,88.9,74.7,79,70.3,71.3z M60.2,86.3c-3.9,2.2-8.8,0.8-11-3c-2.2-3.9-0.8-8.8,3-11c3.9-2.2,8.8-0.8,11,3
	C65.5,79.2,64.1,84.1,60.2,86.3z"/>
</svg>